{
	"asset":{
		"generator":"Khronos glTF Blender I/O v4.1.63",
		"version":"2.0"
	},
	"extensionsUsed":[
		"KHR_materials_specular",
		"KHR_materials_ior"
	],
	"scene":0,
	"scenes":[
		{
			"name":"Scene",
			"nodes":[
				0
			]
		}
	],
	"nodes":[
		{
			"mesh":0,
			"name":"Bush Summer"
		}
	],
	"materials":[
		{
			"extensions":{
				"KHR_materials_specular":{
					"specularFactor":0
				},
				"KHR_materials_ior":{
					"ior":1.4500000476837158
				}
			},
			"name":"color_palette",
			"pbrMetallicRoughness":{
				"baseColorTexture":{
					"index":0
				},
				"metallicFactor":0,
				"roughnessFactor":0.5
			}
		}
	],
	"meshes":[
		{
			"name":"Icosphere.030",
			"primitives":[
				{
					"attributes":{
						"POSITION":0,
						"NORMAL":1,
						"TEXCOORD_0":2
					},
					"indices":3,
					"material":0
				}
			]
		}
	],
	"textures":[
		{
			"sampler":0,
			"source":0
		}
	],
	"images":[
		{
			"mimeType":"image/png",
			"name":"Color Palette",
			"uri":"../../textures/environment/bush/color_palette.png"
		}
	],
	"accessors":[
		{
			"bufferView":0,
			"componentType":5126,
			"count":390,
			"max":[
				4.115811347961426,
				5.221128940582275,
				4.178694725036621
			],
			"min":[
				-3.951061964035034,
				-0.15730541944503784,
				-4.024425029754639
			],
			"type":"VEC3"
		},
		{
			"bufferView":1,
			"componentType":5126,
			"count":390,
			"type":"VEC3"
		},
		{
			"bufferView":2,
			"componentType":5126,
			"count":390,
			"type":"VEC2"
		},
		{
			"bufferView":3,
			"componentType":5123,
			"count":390,
			"type":"SCALAR"
		}
	],
	"bufferViews":[
		{
			"buffer":0,
			"byteLength":4680,
			"byteOffset":0,
			"target":34962
		},
		{
			"buffer":0,
			"byteLength":4680,
			"byteOffset":4680,
			"target":34962
		},
		{
			"buffer":0,
			"byteLength":3120,
			"byteOffset":9360,
			"target":34962
		},
		{
			"buffer":0,
			"byteLength":780,
			"byteOffset":12480,
			"target":34963
		}
	],
	"samplers":[
		{
			"magFilter":9728,
			"minFilter":9984
		}
	],
	"buffers":[
		{
			"byteLength":13260,
			"uri":"bush.bin"
		}
	]
}
